<mxfile host="www.draw.io" modified="2020-02-14T20:31:55.095Z" agent="Mozilla/5.0 (Windows NT 10.0; Win64; x64) AppleWebKit/537.36 (KHTML, like Gecko) Chrome/79.0.3945.130 Safari/537.36" etag="ctfasGk9nUzvjoa7A0-K" version="12.7.0" type="github">
  <diagram id="e065A-mud2xhBOarCELg" name="Page-1">
    <mxGraphModel dx="1038" dy="499" grid="1" gridSize="10" guides="1" tooltips="1" connect="1" arrows="1" fold="1" page="1" pageScale="1" pageWidth="850" pageHeight="1100" math="0" shadow="0">
      <root>
        <mxCell id="0"/>
        <mxCell id="1" parent="0"/>
        <mxCell id="8WfIxl8hDJC5AuqdsZlV-16" style="edgeStyle=orthogonalEdgeStyle;rounded=0;orthogonalLoop=1;jettySize=auto;html=1;entryX=0;entryY=0.5;entryDx=0;entryDy=0;" parent="1" source="8WfIxl8hDJC5AuqdsZlV-1" target="8WfIxl8hDJC5AuqdsZlV-6" edge="1">
          <mxGeometry relative="1" as="geometry"/>
        </mxCell>
        <mxCell id="8WfIxl8hDJC5AuqdsZlV-1" value="Student&lt;br&gt;" style="shape=umlActor;verticalLabelPosition=bottom;labelBackgroundColor=#ffffff;verticalAlign=top;html=1;outlineConnect=0;" parent="1" vertex="1">
          <mxGeometry x="120" y="210" width="30" height="60" as="geometry"/>
        </mxCell>
        <mxCell id="8WfIxl8hDJC5AuqdsZlV-11" style="edgeStyle=orthogonalEdgeStyle;rounded=0;orthogonalLoop=1;jettySize=auto;html=1;exitX=0.5;exitY=1;exitDx=0;exitDy=0;entryX=0.5;entryY=0;entryDx=0;entryDy=0;dashed=1;labelPosition=center;verticalLabelPosition=middle;align=center;verticalAlign=middle;labelBorderColor=none;" parent="1" source="8WfIxl8hDJC5AuqdsZlV-6" target="8WfIxl8hDJC5AuqdsZlV-8" edge="1">
          <mxGeometry relative="1" as="geometry"/>
        </mxCell>
        <mxCell id="8WfIxl8hDJC5AuqdsZlV-17" style="rounded=0;orthogonalLoop=1;jettySize=auto;html=1;entryX=0;entryY=0.3333333333333333;entryDx=0;entryDy=0;entryPerimeter=0;" parent="1" source="8WfIxl8hDJC5AuqdsZlV-6" target="8WfIxl8hDJC5AuqdsZlV-12" edge="1">
          <mxGeometry relative="1" as="geometry"/>
        </mxCell>
        <mxCell id="8WfIxl8hDJC5AuqdsZlV-19" style="rounded=0;orthogonalLoop=1;jettySize=auto;html=1;exitX=1;exitY=0.5;exitDx=0;exitDy=0;entryX=0;entryY=0.3333333333333333;entryDx=0;entryDy=0;entryPerimeter=0;" parent="1" source="8WfIxl8hDJC5AuqdsZlV-6" target="8WfIxl8hDJC5AuqdsZlV-13" edge="1">
          <mxGeometry relative="1" as="geometry"/>
        </mxCell>
        <mxCell id="8WfIxl8hDJC5AuqdsZlV-6" value="Submission" style="ellipse;whiteSpace=wrap;html=1;" parent="1" vertex="1">
          <mxGeometry x="300" y="215" width="120" height="50" as="geometry"/>
        </mxCell>
        <mxCell id="8WfIxl8hDJC5AuqdsZlV-18" style="rounded=0;orthogonalLoop=1;jettySize=auto;html=1;exitX=1;exitY=0.5;exitDx=0;exitDy=0;entryX=0;entryY=1;entryDx=0;entryDy=0;entryPerimeter=0;" parent="1" source="8WfIxl8hDJC5AuqdsZlV-8" target="8WfIxl8hDJC5AuqdsZlV-12" edge="1">
          <mxGeometry relative="1" as="geometry"/>
        </mxCell>
        <mxCell id="8WfIxl8hDJC5AuqdsZlV-20" style="rounded=0;orthogonalLoop=1;jettySize=auto;html=1;exitX=1;exitY=0.5;exitDx=0;exitDy=0;entryX=0;entryY=1;entryDx=0;entryDy=0;entryPerimeter=0;endArrow=classic;endFill=1;" parent="1" source="8WfIxl8hDJC5AuqdsZlV-8" target="8WfIxl8hDJC5AuqdsZlV-13" edge="1">
          <mxGeometry relative="1" as="geometry"/>
        </mxCell>
        <mxCell id="8WfIxl8hDJC5AuqdsZlV-8" value="Add note" style="ellipse;whiteSpace=wrap;html=1;" parent="1" vertex="1">
          <mxGeometry x="300" y="310" width="120" height="50" as="geometry"/>
        </mxCell>
        <mxCell id="8WfIxl8hDJC5AuqdsZlV-12" value="Instructor" style="shape=umlActor;verticalLabelPosition=bottom;labelBackgroundColor=#ffffff;verticalAlign=top;html=1;" parent="1" vertex="1">
          <mxGeometry x="590" y="215" width="30" height="60" as="geometry"/>
        </mxCell>
        <mxCell id="8WfIxl8hDJC5AuqdsZlV-13" value="TA" style="shape=umlActor;verticalLabelPosition=bottom;labelBackgroundColor=#ffffff;verticalAlign=top;html=1;" parent="1" vertex="1">
          <mxGeometry x="590" y="355" width="30" height="60" as="geometry"/>
        </mxCell>
        <mxCell id="8WfIxl8hDJC5AuqdsZlV-21" value="&amp;lt;&amp;lt;include&amp;gt;&amp;gt;" style="text;html=1;strokeColor=none;fillColor=none;align=center;verticalAlign=middle;whiteSpace=wrap;rounded=0;" parent="1" vertex="1">
          <mxGeometry x="310" y="275" width="40" height="20" as="geometry"/>
        </mxCell>
        <mxCell id="8WfIxl8hDJC5AuqdsZlV-22" value="" style="rounded=0;whiteSpace=wrap;html=1;fillColor=none;" parent="1" vertex="1">
          <mxGeometry x="240" y="130" width="230" height="280" as="geometry"/>
        </mxCell>
        <mxCell id="8WfIxl8hDJC5AuqdsZlV-23" value="Submission" style="text;html=1;strokeColor=none;fillColor=none;align=center;verticalAlign=middle;whiteSpace=wrap;rounded=0;" parent="1" vertex="1">
          <mxGeometry x="260" y="140" width="40" height="20" as="geometry"/>
        </mxCell>
        <mxCell id="gSTIla5MGHZNbUlmTeWK-1" value="&lt;b&gt;Use Case Diagram&lt;br&gt;&lt;/b&gt;Constructed by &lt;br&gt;Alex Webber" style="text;html=1;strokeColor=none;fillColor=none;align=center;verticalAlign=middle;whiteSpace=wrap;rounded=0;" vertex="1" parent="1">
          <mxGeometry x="100" y="50" width="130" height="20" as="geometry"/>
        </mxCell>
      </root>
    </mxGraphModel>
  </diagram>
</mxfile>
